<?xml version="1.0" ?><!DOCTYPE svg  PUBLIC '-//W3C//DTD SVG 1.1//EN'  'http://www.w3.org/Graphics/SVG/1.1/DTD/svg11.dtd'><svg height="512px" id="icons" style="enable-background:new 0 0 512 512;" version="1.1" viewBox="0 0 512 512" width="512px" xml:space="preserve" xmlns="http://www.w3.org/2000/svg" xmlns:xlink="http://www.w3.org/1999/xlink"><style type="text/css"><![CDATA[
	.st0{fill:none;}
	.st1{fill:#373737;}
]]></style><g><g><path class="st1" d="M167.771,343.809c-0.909,8.799,3.397,22.568,18.173,26.692c3.411,0.979,67.137,19.282,111.038,32.317     c20.386,6.055,30.966,15.347,43.215,26.107c12.227,10.739,26.086,22.913,48.393,29.625c11.439,3.442,24.208,4.981,38.816,5.164     c16.136,0.202,41.595-3.006,53.383-5.978l-0.586-158.763l-112.6-68.871c-5.812-3.555-12.819-4.592-19.415-2.872l-111.487,29.091     c-3.516,0.918-6.791,2.589-9.598,4.897l-13.49,11.097l14.255,53.199c-8.112-1.018-15.171-1.906-20.578-2.59l-9.97-37.209     l-0.014,0.012l-5.329-19.916c21.898-10.914,38.962-31.851,48.878-60.437c11.483-33.106,12.021-72.93,1.517-112.136     c-6.365-23.751-16.208-45.453-29.257-64.503c-3.07-4.481-8.631-6.534-13.877-5.132L33.629,67.98     c-5.246,1.406-9.035,5.969-9.452,11.384c-1.776,23.022,0.551,46.739,6.916,70.489c9.254,34.539,26.643,65.96,48.962,88.476     c22.951,23.153,50.005,35.905,76.179,35.906c0.001,0,0.003,0,0.005,0c1.609,0,3.215-0.054,4.817-0.149l9.092,33.982     c0,0-23.908,19.831-23.918,19.842c-5.061,5.095-8.888,13.722-6.56,23.467c1.78,7.443,7.602,15.609,17.812,18.362     C155.223,359.313,159.815,349.281,167.771,343.809z M156.235,248.627c-19.291-0.001-39.887-10.061-57.993-28.326     c-19.231-19.4-34.294-46.773-42.414-77.075c-4.708-17.571-6.942-35.688-6.561-52.923l147.588-39.547     c8.949,14.736,16.073,31.542,20.781,49.112c4.043,15.091,6.237,30.215,6.595,44.835H87.812c0,0,8.161,31.079,29.47,61.167     c17.892,25.266,39.51,40.693,58.77,39.019c-1.88,0.74-3.801,1.375-5.76,1.899c-4.554,1.221-9.282,1.839-14.053,1.839     C156.237,248.627,156.236,248.627,156.235,248.627z M261.566,310.011l71.567-8.799c3.652,14.491,0.564,34.952-19.567,33.757     c-12.032-0.714-61.766-6.46-76.66-8.322L261.566,310.011z"/><path class="st1" d="M192.948,393.294l11.007,41.144l-36.978,15.483c-13.769,6.215-25.535,16.326-21.406,31.748l163.955-43.927     c-4.132-15.42-16.524-18.294-34.419-16.789l-40.201,5.316l-6.29-23.51C219.407,400.299,192.948,393.294,192.948,393.294z"/></g><rect class="st0" height="512" width="512"/></g></svg>